<svg viewBox="0 0 24 24" xmlns="http://www.w3.org/2000/svg"><path fill="currentColor" fill-rule="nonzero" transform="scale(0.0380952381) translate(77.5 0)" d="M282,0 H449 A26,26 0 0 1 475,26 V604 A26,26 0 0 1 449,630 H282 A26,26 0 0 1 256,604 V26 A26,26 0 0 1 282,0 Z M346,604 L346,630 L320,630 L153,630 C138.640597,630 127,618.359403 127,604 L127,183 C127,168.640597 138.640597,157 153,157 L320,157 C334.359403,157 346,168.640597 346,183 L346,604 Z M219,604 L219,630 L193,630 L26,630 C11.6405965,630 1.75851975e-15,618.359403 0,604 L0,341 C-1.75851975e-15,326.640597 11.6405965,315 26,315 L193,315 C207.359403,315 219,326.640597 219,341 L219,604 Z" /></svg>
